<?xml version="1.0" encoding="UTF-8" standalone="no"?>
<!-- Created with Inkscape (http://www.inkscape.org/) -->

<svg
   width="211.7679mm"
   height="126.73579mm"
   viewBox="0 0 211.7679 126.73579"
   version="1.1"
   id="svg1"
   xml:space="preserve"
   xmlns:inkscape="http://www.inkscape.org/namespaces/inkscape"
   xmlns:sodipodi="http://sodipodi.sourceforge.net/DTD/sodipodi-0.dtd"
   xmlns="http://www.w3.org/2000/svg"
   xmlns:svg="http://www.w3.org/2000/svg"><sodipodi:namedview
     id="namedview1"
     pagecolor="#ffffff"
     bordercolor="#000000"
     borderopacity="0.25"
     inkscape:showpageshadow="2"
     inkscape:pageopacity="0.0"
     inkscape:pagecheckerboard="0"
     inkscape:deskcolor="#d1d1d1"
     inkscape:document-units="mm"><inkscape:page
       x="-5.7334387e-07"
       y="-7.8817684e-06"
       width="211.7679"
       height="126.73578"
       id="page3"
       margin="0"
       bleed="0" /></sodipodi:namedview><defs
     id="defs1"><clipPath
       clipPathUnits="userSpaceOnUse"
       id="clipPath33"><path
         d="M 103.82,1524.63 H 707.107 V 1162.38 H 103.82 Z"
         transform="translate(-147.76671,-1520.9241)"
         id="path33" /></clipPath><clipPath
       clipPathUnits="userSpaceOnUse"
       id="clipPath35"><path
         d="M 0,0 H 1920 V 1920 H 0 Z"
         transform="matrix(1.3333333,0,0,-1.3333333,0,2560)"
         id="path35" /></clipPath><clipPath
       clipPathUnits="userSpaceOnUse"
       id="clipPath38"><path
         d="M 0,0 H 1920 V 1920 H 0 Z"
         transform="translate(-150.62901,-1389.441)"
         id="path38" /></clipPath><clipPath
       clipPathUnits="userSpaceOnUse"
       id="clipPath45"><path
         d="M 0,0 H 1920 V 1920 H 0 Z"
         transform="translate(-579.58801,-1389.441)"
         id="path45" /></clipPath><clipPath
       clipPathUnits="userSpaceOnUse"
       id="clipPath48"><path
         d="M 0,0 H 1920 V 1920 H 0 Z"
         transform="translate(-263.455,-1411.9764)"
         id="path48" /></clipPath></defs><g
     id="g1"
     inkscape:groupmode="layer"
     inkscape:label="1"
     transform="matrix(0.26458333,0,0,0.26458334,-37.154633,-140.0053)"><g
       id="g4"><g
         id="g34"
         clip-path="url(#clipPath35)"><path
           d="m 0,0 h 515.394 c 0.659,0 1.317,-0.016 1.974,-0.048 0.658,-0.033 1.314,-0.081 1.97,-0.146 0.655,-0.064 1.309,-0.145 1.96,-0.242 0.651,-0.096 1.3,-0.209 1.946,-0.337 0.646,-0.129 1.288,-0.273 1.927,-0.433 0.639,-0.16 1.273,-0.335 1.903,-0.527 0.63,-0.191 1.255,-0.397 1.875,-0.619 0.62,-0.222 1.234,-0.459 1.843,-0.711 0.608,-0.252 1.21,-0.519 1.805,-0.8 0.596,-0.282 1.184,-0.578 1.764,-0.888 0.581,-0.31 1.153,-0.635 1.718,-0.973 0.565,-0.339 1.122,-0.691 1.669,-1.057 0.548,-0.366 1.086,-0.745 1.615,-1.137 0.528,-0.392 1.047,-0.797 1.556,-1.215 0.509,-0.418 1.008,-0.848 1.496,-1.29 0.488,-0.442 0.964,-0.896 1.43,-1.362 0.466,-0.465 0.92,-0.942 1.362,-1.43 0.442,-0.488 0.872,-0.986 1.29,-1.495 0.417,-0.509 0.822,-1.028 1.215,-1.557 0.392,-0.529 0.771,-1.067 1.137,-1.615 0.366,-0.547 0.718,-1.104 1.057,-1.668 0.338,-0.565 0.663,-1.138 0.973,-1.719 0.31,-0.58 0.606,-1.168 0.887,-1.764 0.282,-0.595 0.549,-1.197 0.801,-1.805 0.252,-0.609 0.489,-1.223 0.711,-1.843 0.222,-0.62 0.428,-1.245 0.619,-1.875 0.192,-0.63 0.367,-1.264 0.527,-1.903 0.16,-0.639 0.304,-1.281 0.432,-1.927 0.129,-0.646 0.242,-1.295 0.339,-1.946 0.096,-0.651 0.177,-1.304 0.241,-1.96 0.065,-0.655 0.113,-1.312 0.146,-1.969 0.032,-0.658 0.048,-1.316 0.048,-1.975 v -274.359 c 0,-0.658 -0.016,-1.316 -0.048,-1.974 -0.033,-0.658 -0.081,-1.314 -0.146,-1.969 -0.064,-0.656 -0.145,-1.309 -0.241,-1.96 -0.097,-0.652 -0.21,-1.3 -0.339,-1.946 -0.128,-0.646 -0.272,-1.288 -0.432,-1.927 -0.16,-0.639 -0.335,-1.273 -0.527,-1.904 -0.191,-0.63 -0.397,-1.255 -0.619,-1.875 -0.222,-0.62 -0.459,-1.234 -0.711,-1.842 -0.252,-0.608 -0.519,-1.21 -0.801,-1.806 -0.281,-0.595 -0.577,-1.183 -0.887,-1.764 -0.31,-0.58 -0.635,-1.153 -0.973,-1.718 -0.339,-0.564 -0.691,-1.121 -1.057,-1.668 -0.366,-0.547 -0.745,-1.086 -1.137,-1.615 -0.393,-0.529 -0.798,-1.048 -1.215,-1.557 -0.418,-0.509 -0.848,-1.007 -1.29,-1.495 -0.442,-0.488 -0.896,-0.965 -1.362,-1.431 -0.466,-0.465 -0.942,-0.919 -1.43,-1.361 -0.488,-0.442 -0.987,-0.873 -1.496,-1.291 -0.509,-0.417 -1.028,-0.822 -1.556,-1.214 -0.529,-0.392 -1.067,-0.771 -1.615,-1.138 -0.547,-0.365 -1.104,-0.717 -1.669,-1.055 -0.565,-0.339 -1.137,-0.664 -1.718,-0.974 -0.58,-0.311 -1.168,-0.607 -1.764,-0.888 -0.595,-0.282 -1.197,-0.548 -1.805,-0.8 -0.609,-0.252 -1.223,-0.489 -1.843,-0.711 -0.62,-0.222 -1.245,-0.429 -1.875,-0.62 -0.63,-0.191 -1.264,-0.366 -1.903,-0.526 -0.639,-0.16 -1.281,-0.304 -1.927,-0.433 -0.646,-0.129 -1.295,-0.241 -1.946,-0.338 -0.651,-0.096 -1.305,-0.177 -1.96,-0.242 -0.656,-0.064 -1.312,-0.113 -1.97,-0.144 -0.657,-0.033 -1.315,-0.049 -1.974,-0.049 H 0 c -0.659,0 -1.317,0.016 -1.974,0.049 -0.658,0.031 -1.314,0.08 -1.97,0.144 -0.655,0.065 -1.308,0.146 -1.96,0.242 -0.651,0.097 -1.3,0.209 -1.946,0.338 -0.645,0.129 -1.288,0.273 -1.926,0.433 -0.639,0.16 -1.274,0.335 -1.904,0.526 -0.63,0.191 -1.255,0.398 -1.875,0.62 -0.62,0.222 -1.234,0.459 -1.843,0.711 -0.608,0.252 -1.21,0.518 -1.805,0.8 -0.595,0.281 -1.183,0.577 -1.764,0.888 -0.581,0.31 -1.153,0.635 -1.718,0.974 -0.565,0.338 -1.121,0.69 -1.669,1.055 -0.547,0.367 -1.085,0.746 -1.614,1.138 -0.529,0.392 -1.048,0.797 -1.557,1.214 -0.509,0.418 -1.008,0.849 -1.496,1.291 -0.488,0.442 -0.964,0.896 -1.43,1.361 -0.466,0.466 -0.919,0.943 -1.362,1.431 -0.442,0.488 -0.872,0.986 -1.29,1.495 -0.417,0.509 -0.822,1.028 -1.215,1.557 -0.392,0.529 -0.771,1.068 -1.137,1.615 -0.366,0.547 -0.718,1.104 -1.056,1.668 -0.339,0.565 -0.663,1.138 -0.974,1.718 -0.31,0.581 -0.606,1.169 -0.888,1.764 -0.281,0.596 -0.548,1.198 -0.8,1.806 -0.252,0.608 -0.489,1.222 -0.711,1.842 -0.221,0.62 -0.428,1.245 -0.619,1.875 -0.191,0.631 -0.367,1.265 -0.527,1.904 -0.16,0.639 -0.304,1.281 -0.433,1.927 -0.128,0.646 -0.241,1.294 -0.337,1.946 -0.097,0.651 -0.177,1.304 -0.242,1.96 -0.064,0.655 -0.113,1.311 -0.145,1.969 -0.032,0.658 -0.049,1.316 -0.049,1.974 v 274.359 c 0,0.659 0.017,1.317 0.049,1.975 0.032,0.657 0.081,1.314 0.145,1.969 0.065,0.656 0.145,1.309 0.242,1.96 0.096,0.651 0.209,1.3 0.337,1.946 0.129,0.646 0.273,1.288 0.433,1.927 0.16,0.639 0.336,1.273 0.527,1.903 0.191,0.63 0.398,1.255 0.619,1.875 0.222,0.62 0.459,1.234 0.711,1.843 0.252,0.608 0.519,1.21 0.8,1.805 0.282,0.596 0.578,1.184 0.888,1.764 0.311,0.581 0.635,1.154 0.974,1.719 0.338,0.564 0.69,1.121 1.056,1.668 0.366,0.548 0.745,1.086 1.137,1.615 0.393,0.529 0.798,1.048 1.215,1.557 0.418,0.509 0.848,1.007 1.29,1.495 0.443,0.488 0.896,0.965 1.362,1.43 0.466,0.466 0.942,0.92 1.43,1.362 0.488,0.442 0.987,0.872 1.496,1.29 0.509,0.418 1.028,0.823 1.557,1.215 0.529,0.392 1.067,0.771 1.614,1.137 0.548,0.366 1.104,0.718 1.669,1.057 0.565,0.338 1.137,0.663 1.718,0.973 0.581,0.31 1.169,0.606 1.764,0.888 0.595,0.281 1.197,0.548 1.805,0.8 0.609,0.252 1.223,0.489 1.843,0.711 0.62,0.222 1.245,0.428 1.875,0.619 0.63,0.192 1.265,0.367 1.904,0.527 0.638,0.16 1.281,0.304 1.926,0.433 0.646,0.128 1.295,0.241 1.946,0.337 0.652,0.097 1.305,0.178 1.96,0.242 0.656,0.065 1.312,0.113 1.97,0.146 C -1.317,-0.016 -0.659,0 0,0"
           style="fill:#e0e0e0;fill-opacity:0;fill-rule:nonzero;stroke:#a3a3a3;stroke-width:4.421;stroke-linecap:butt;stroke-linejoin:miter;stroke-miterlimit:10;stroke-dasharray:none;stroke-opacity:1"
           transform="matrix(1.3333333,0,0,-1.3333333,197.02227,532.1012)"
           clip-path="url(#clipPath33)"
           id="path34" /></g><path
         id="path36"
         d="M 5.4725141,8.15625e-4 H 15.91392 V -17.975747 h 16.054688 v -8.8125 H 15.91392 v -10.722656 h 18.761719 v -8.8125 H 5.4725141 Z M 60.82603,0.85628437 c 12.503906,0 21.023437,-9.09374997 21.023437,-24.23437537 0,-15.058593 -8.519531,-23.800781 -21.023437,-23.800781 -12.515625,0 -21.035157,8.671875 -21.035157,23.800781 0,15.1406254 8.519532,24.23437537 21.035157,24.23437537 z m 0,-9.02343747 c -6.328125,0 -10.3125,-5.8945309 -10.3125,-15.2109379 0,-9.234375 3.984375,-14.777343 10.3125,-14.777343 6.316406,0 10.300781,5.542968 10.300781,14.777343 0,9.316407 -3.984375,15.2109379 -10.300781,15.2109379 z M 90.594584,8.15625e-4 H 101.03599 V -16.698403 h 5.75391 l 8.88281,16.699218625 h 11.71875 L 116.87974,-18.538247 c 4.98047,-2.203125 8.23828,-6.539062 8.23828,-13.359375 0,-11.015625 -8.02734,-14.425781 -17.82422,-14.425781 H 90.594584 Z M 101.03599,-25.006997 v -13.007812 h 5.40234 c 5.47266,0 8.44922,1.570312 8.44922,6.117187 0,4.546875 -2.97656,6.890625 -8.44922,6.890625 z M 134.15025,8.15625e-4 h 29.69531 V -8.8116844 H 144.59165 V -19.464028 h 15.77344 v -8.742188 h -15.77344 v -9.304687 h 18.55079 v -8.8125 H 134.15025 Z M 134.50181,-49.874184 h 8.02734 l 6.60938,-4.980469 h 0.28125 l 6.60937,4.980469 h 8.02735 l -9.375,-10.875 H 143.87681 Z M 182.11216,8.15625e-4 h 10.51172 V -37.510903 h 12.71484 v -8.8125 h -35.9414 v 8.8125 h 12.71484 z M 205.63462,-14.284341 h 17.47266 v -7.382812 h -17.47266 z m 38.28809,15.14062537 c 11.08594,0 17.48437,-6.67968747 17.48437,-14.35546837 0,-6.539063 -3.48046,-10.300782 -9.16406,-12.574219 l -5.97656,-2.414063 c -3.97266,-1.640625 -7.03125,-2.636718 -7.03125,-5.472656 0,-2.625 2.27344,-4.195312 5.89453,-4.195312 3.12891,0 6.32813,1.347656 9.38672,3.550781 l 5.54297,-6.75 c -3.98438,-3.691406 -9.38672,-5.824219 -14.92969,-5.824219 -9.65625,0 -16.47656,6.117188 -16.47656,13.78125 0,6.75 4.54687,10.734375 9.30469,12.726563 l 6.03515,2.484375 c 4.05469,1.699218 6.67969,2.625 6.67969,5.542968 0,2.7656254 -2.13281,4.4765629 -6.45703,4.4765629 -4.05469,0 -8.60156,-1.640625 -11.8711,-4.5468749 l -5.54296,6.8203124 c 4.6875,4.6171875 10.875,6.74999997 17.12109,6.74999997 z m 44.97949,0 c 5.75391,0 10.59375,-2.20312497 14.56641,-6.67968747 l -5.26172,-6.1874999 c -2.12109,2.2031249 -5.03906,3.8437499 -8.58984,3.8437499 -7.03125,0 -11.80079,-5.5429689 -11.80079,-15.0703129 0,-9.164062 5.1211,-14.917968 11.36719,-14.917968 3.33985,0 5.83594,1.207031 8.17969,3.339843 l 5.54297,-6.316406 c -3.12891,-3.339844 -7.95703,-6.046875 -13.9336,-6.046875 -11.71875,0 -21.8789,8.953125 -21.8789,24.304688 0,15.5624996 9.94922,23.73046837 21.80859,23.73046837 z m 37.95117,0 c 12.50391,0 21.02344,-9.09374997 21.02344,-24.23437537 0,-15.058593 -8.51953,-23.800781 -21.02344,-23.800781 -12.51562,0 -21.03515,8.671875 -21.03515,23.800781 0,15.1406254 8.51953,24.23437537 21.03515,24.23437537 z m 0,-9.02343747 c -6.32812,0 -10.3125,-5.8945309 -10.3125,-15.2109379 0,-9.234375 3.98438,-14.777343 10.3125,-14.777343 6.31641,0 10.30078,5.542968 10.30078,14.777343 0,9.316407 -3.98437,15.2109379 -10.30078,15.2109379 z m 29.76856,8.167968725 h 10.4414 V -16.698403 h 5.75391 L 381.70005,8.15625e-4 H 393.4188 L 382.90708,-18.538247 c 4.98047,-2.203125 8.23829,-6.539062 8.23829,-13.359375 0,-11.015625 -8.02735,-14.425781 -17.82422,-14.425781 H 356.62193 Z M 367.06333,-25.006997 v -13.007812 h 5.40235 c 5.47265,0 8.44922,1.570312 8.44922,6.117187 0,4.546875 -2.97657,6.890625 -8.44922,6.890625 z M 400.17759,8.15625e-4 H 429.8729 V -8.8116844 H 410.619 V -19.464028 h 15.77344 v -8.742188 H 410.619 v -9.304687 h 18.55078 v -8.8125 h -28.99219 z m 0,0"
         style="fill:#a3a3a3;fill-opacity:1;fill-rule:nonzero;stroke:none"
         aria-label="FORÊT-SCORE"
         transform="matrix(1.3333333,0,0,1.3333333,183.15253,645.5536)" /><path
         id="path37"
         d="m 0,0 h 80.711 c 0.217,0 0.434,-0.005 0.65,-0.016 0.218,-0.011 0.434,-0.027 0.65,-0.048 0.216,-0.021 0.431,-0.048 0.646,-0.08 0.215,-0.031 0.429,-0.069 0.642,-0.111 0.213,-0.042 0.425,-0.09 0.635,-0.142 0.211,-0.053 0.42,-0.111 0.627,-0.174 0.208,-0.063 0.414,-0.131 0.619,-0.204 0.204,-0.074 0.406,-0.152 0.606,-0.235 0.202,-0.083 0.4,-0.171 0.596,-0.264 0.197,-0.092 0.39,-0.19 0.581,-0.292 0.192,-0.103 0.381,-0.21 0.567,-0.321 0.186,-0.112 0.37,-0.228 0.55,-0.348 0.181,-0.121 0.358,-0.246 0.533,-0.375 0.174,-0.13 0.345,-0.263 0.513,-0.401 0.168,-0.138 0.332,-0.279 0.492,-0.425 0.161,-0.146 0.319,-0.296 0.472,-0.449 0.153,-0.154 0.303,-0.311 0.449,-0.472 0.146,-0.16 0.287,-0.325 0.426,-0.493 0.137,-0.167 0.271,-0.338 0.4,-0.513 0.129,-0.174 0.254,-0.352 0.375,-0.532 0.121,-0.181 0.237,-0.364 0.348,-0.55 0.112,-0.186 0.219,-0.375 0.321,-0.567 0.103,-0.191 0.2,-0.385 0.292,-0.581 0.094,-0.196 0.181,-0.395 0.264,-0.595 0.084,-0.201 0.161,-0.403 0.235,-0.608 0.073,-0.204 0.141,-0.41 0.204,-0.618 0.063,-0.208 0.121,-0.417 0.173,-0.628 0.054,-0.21 0.101,-0.422 0.143,-0.635 0.042,-0.213 0.08,-0.427 0.112,-0.641 0.032,-0.215 0.058,-0.43 0.079,-0.646 0.022,-0.216 0.038,-0.433 0.048,-0.65 0.011,-0.216 0.016,-0.433 0.016,-0.651 v -147.731 c 0,-0.217 -0.005,-0.434 -0.016,-0.651 -0.01,-0.217 -0.026,-0.433 -0.048,-0.649 -0.021,-0.216 -0.047,-0.432 -0.079,-0.646 -0.032,-0.215 -0.07,-0.429 -0.112,-0.642 -0.042,-0.213 -0.089,-0.424 -0.143,-0.635 -0.052,-0.211 -0.11,-0.42 -0.173,-0.627 -0.063,-0.208 -0.131,-0.414 -0.204,-0.618 -0.074,-0.205 -0.151,-0.407 -0.235,-0.608 -0.083,-0.2 -0.17,-0.399 -0.264,-0.595 -0.092,-0.196 -0.189,-0.39 -0.292,-0.582 -0.102,-0.191 -0.209,-0.38 -0.321,-0.567 -0.111,-0.185 -0.227,-0.369 -0.348,-0.549 -0.121,-0.181 -0.246,-0.358 -0.375,-0.533 -0.129,-0.174 -0.263,-0.345 -0.4,-0.513 -0.139,-0.168 -0.28,-0.332 -0.426,-0.492 -0.146,-0.161 -0.296,-0.319 -0.449,-0.472 -0.153,-0.154 -0.311,-0.303 -0.472,-0.449 -0.16,-0.146 -0.324,-0.288 -0.492,-0.426 -0.168,-0.137 -0.339,-0.271 -0.513,-0.4 -0.175,-0.129 -0.352,-0.254 -0.533,-0.375 -0.18,-0.121 -0.364,-0.237 -0.55,-0.348 -0.186,-0.112 -0.375,-0.219 -0.567,-0.321 -0.191,-0.102 -0.384,-0.2 -0.581,-0.293 -0.196,-0.093 -0.394,-0.181 -0.596,-0.264 -0.2,-0.083 -0.402,-0.161 -0.606,-0.234 -0.205,-0.073 -0.411,-0.141 -0.619,-0.204 -0.207,-0.064 -0.416,-0.121 -0.627,-0.174 -0.21,-0.053 -0.422,-0.1 -0.635,-0.142 -0.213,-0.043 -0.427,-0.08 -0.642,-0.112 -0.215,-0.032 -0.43,-0.058 -0.646,-0.08 -0.216,-0.021 -0.432,-0.037 -0.65,-0.048 -0.216,-0.01 -0.433,-0.015 -0.65,-0.015 H 0 c -0.217,0 -0.434,0.005 -0.651,0.015 -0.217,0.011 -0.433,0.027 -0.649,0.048 -0.216,0.022 -0.432,0.048 -0.646,0.08 -0.215,0.032 -0.429,0.069 -0.642,0.112 -0.213,0.042 -0.424,0.089 -0.635,0.142 -0.211,0.053 -0.42,0.11 -0.627,0.174 -0.208,0.063 -0.414,0.131 -0.619,0.204 -0.204,0.073 -0.407,0.151 -0.607,0.234 -0.201,0.083 -0.399,0.171 -0.595,0.264 -0.197,0.093 -0.39,0.191 -0.582,0.293 -0.191,0.102 -0.38,0.209 -0.566,0.321 -0.187,0.111 -0.37,0.227 -0.55,0.348 -0.181,0.121 -0.358,0.246 -0.533,0.375 -0.174,0.129 -0.345,0.263 -0.513,0.4 -0.168,0.138 -0.332,0.28 -0.493,0.426 -0.161,0.146 -0.318,0.295 -0.471,0.449 -0.154,0.153 -0.304,0.311 -0.449,0.472 -0.146,0.16 -0.288,0.324 -0.426,0.492 -0.137,0.168 -0.271,0.339 -0.4,0.513 -0.129,0.175 -0.254,0.352 -0.375,0.533 -0.121,0.18 -0.237,0.364 -0.348,0.549 -0.112,0.187 -0.219,0.376 -0.321,0.567 -0.103,0.192 -0.2,0.386 -0.293,0.582 -0.093,0.196 -0.181,0.395 -0.264,0.595 -0.083,0.201 -0.161,0.403 -0.234,0.608 -0.073,0.204 -0.141,0.41 -0.204,0.618 -0.063,0.207 -0.121,0.416 -0.174,0.627 -0.053,0.211 -0.1,0.422 -0.143,0.635 -0.042,0.213 -0.079,0.427 -0.111,0.642 -0.032,0.214 -0.058,0.43 -0.08,0.646 -0.021,0.216 -0.037,0.432 -0.048,0.649 -0.01,0.217 -0.015,0.434 -0.015,0.651 v 147.731 c 0,0.218 0.005,0.435 0.015,0.651 0.011,0.217 0.027,0.434 0.048,0.65 0.022,0.216 0.048,0.431 0.08,0.646 0.032,0.214 0.069,0.428 0.111,0.641 0.043,0.213 0.09,0.425 0.143,0.635 0.053,0.211 0.111,0.42 0.174,0.628 0.063,0.208 0.131,0.414 0.204,0.618 0.073,0.205 0.151,0.407 0.234,0.608 0.083,0.2 0.171,0.399 0.264,0.595 0.093,0.196 0.19,0.39 0.293,0.581 0.102,0.192 0.209,0.381 0.321,0.567 0.111,0.186 0.227,0.369 0.348,0.55 0.121,0.18 0.246,0.358 0.375,0.532 0.129,0.175 0.263,0.346 0.4,0.513 0.138,0.168 0.28,0.333 0.426,0.493 0.145,0.161 0.295,0.318 0.449,0.472 0.153,0.153 0.31,0.303 0.471,0.449 0.161,0.146 0.325,0.287 0.493,0.425 0.168,0.138 0.339,0.271 0.513,0.401 0.175,0.129 0.352,0.254 0.533,0.375 0.18,0.12 0.363,0.236 0.55,0.348 0.186,0.111 0.375,0.218 0.566,0.321 0.192,0.102 0.385,0.2 0.582,0.292 0.196,0.093 0.394,0.181 0.595,0.264 0.2,0.083 0.403,0.161 0.607,0.235 0.205,0.073 0.411,0.141 0.619,0.204 0.207,0.063 0.416,0.121 0.627,0.174 0.211,0.052 0.422,0.1 0.635,0.142 0.213,0.042 0.427,0.08 0.642,0.111 0.214,0.032 0.43,0.059 0.646,0.08 0.216,0.021 0.432,0.037 0.649,0.048 C -0.434,-0.005 -0.217,0 0,0"
         style="fill:#248b05;fill-opacity:1;fill-rule:nonzero;stroke:none"
         transform="matrix(1.3333333,0,0,-1.3333333,200.83867,707.412)"
         clip-path="url(#clipPath38)" /><path
         id="path39"
         d="m 163.451,1389.441 h 81.153 v -174.26 h -81.153 z"
         style="fill:#248b05;fill-opacity:1;fill-rule:nonzero;stroke:none"
         transform="matrix(1.3333333,0,0,-1.3333333,0,2560)" /><path
         id="path40"
         d="m 244.604,1389.441 h 107.239 v -174.26 H 244.604 Z"
         style="fill:#83cc58;fill-opacity:1;fill-rule:nonzero;stroke:none"
         transform="matrix(1.3333333,0,0,-1.3333333,0,2560)" /><path
         id="path41"
         d="m 351.844,1389.441 h 107.24 v -174.26 h -107.24 z"
         style="fill:#f5e42a;fill-opacity:1;fill-rule:nonzero;stroke:none"
         transform="matrix(1.3333333,0,0,-1.3333333,0,2560)" /><path
         id="path42"
         d="m 459.084,1389.441 h 107.24 v -174.26 h -107.24 z"
         style="fill:#ffc019;fill-opacity:1;fill-rule:nonzero;stroke:none"
         transform="matrix(1.3333333,0,0,-1.3333333,0,2560)" /><path
         id="path43"
         d="m 566.323,1389.441 h 83.364 v -174.26 h -83.364 z"
         style="fill:#fa6243;fill-opacity:1;fill-rule:nonzero;stroke:none"
         transform="matrix(1.3333333,0,0,-1.3333333,0,2560)" /><path
         id="path44"
         d="m 0,0 h 80.711 c 0.217,0 0.434,-0.005 0.65,-0.016 0.217,-0.011 0.434,-0.027 0.65,-0.048 0.216,-0.021 0.431,-0.048 0.646,-0.08 0.215,-0.031 0.429,-0.069 0.642,-0.111 0.213,-0.042 0.424,-0.09 0.635,-0.142 0.21,-0.053 0.419,-0.111 0.627,-0.174 0.208,-0.063 0.414,-0.131 0.619,-0.204 0.204,-0.074 0.406,-0.152 0.606,-0.235 0.201,-0.083 0.4,-0.171 0.596,-0.264 0.196,-0.092 0.39,-0.19 0.581,-0.292 0.192,-0.103 0.381,-0.21 0.567,-0.321 0.186,-0.112 0.369,-0.228 0.55,-0.348 0.18,-0.121 0.358,-0.246 0.532,-0.375 0.175,-0.13 0.346,-0.263 0.513,-0.401 0.168,-0.138 0.333,-0.279 0.494,-0.425 0.16,-0.146 0.317,-0.296 0.471,-0.449 0.153,-0.154 0.303,-0.311 0.449,-0.472 0.146,-0.16 0.287,-0.325 0.425,-0.493 0.138,-0.167 0.271,-0.338 0.401,-0.513 0.129,-0.174 0.254,-0.352 0.375,-0.532 0.12,-0.181 0.237,-0.364 0.348,-0.55 0.111,-0.186 0.218,-0.375 0.321,-0.567 0.102,-0.191 0.2,-0.385 0.292,-0.581 0.093,-0.196 0.181,-0.395 0.264,-0.595 0.083,-0.201 0.161,-0.403 0.234,-0.608 0.074,-0.204 0.142,-0.41 0.205,-0.618 0.063,-0.208 0.121,-0.417 0.173,-0.628 0.053,-0.21 0.101,-0.422 0.143,-0.635 0.042,-0.213 0.08,-0.427 0.112,-0.641 0.032,-0.215 0.058,-0.43 0.079,-0.646 0.022,-0.216 0.038,-0.433 0.048,-0.65 0.011,-0.216 0.016,-0.433 0.016,-0.651 v -147.731 c 0,-0.217 -0.005,-0.434 -0.016,-0.651 -0.01,-0.217 -0.026,-0.433 -0.048,-0.649 -0.021,-0.216 -0.047,-0.432 -0.079,-0.646 -0.032,-0.215 -0.07,-0.429 -0.112,-0.642 -0.042,-0.213 -0.09,-0.424 -0.143,-0.635 -0.052,-0.211 -0.11,-0.42 -0.173,-0.627 -0.063,-0.208 -0.131,-0.414 -0.205,-0.618 -0.073,-0.205 -0.151,-0.407 -0.234,-0.608 -0.083,-0.2 -0.171,-0.399 -0.264,-0.595 -0.092,-0.196 -0.19,-0.39 -0.292,-0.582 -0.103,-0.191 -0.21,-0.38 -0.321,-0.567 -0.111,-0.185 -0.228,-0.369 -0.348,-0.549 -0.121,-0.181 -0.246,-0.358 -0.375,-0.533 -0.13,-0.174 -0.263,-0.345 -0.401,-0.513 -0.138,-0.168 -0.279,-0.332 -0.425,-0.492 -0.146,-0.161 -0.296,-0.319 -0.449,-0.472 -0.154,-0.154 -0.311,-0.303 -0.471,-0.449 -0.161,-0.146 -0.326,-0.288 -0.494,-0.426 -0.167,-0.137 -0.338,-0.271 -0.513,-0.4 -0.174,-0.129 -0.352,-0.254 -0.532,-0.375 -0.181,-0.121 -0.364,-0.237 -0.55,-0.348 -0.186,-0.112 -0.375,-0.219 -0.567,-0.321 -0.191,-0.102 -0.385,-0.2 -0.581,-0.293 -0.196,-0.093 -0.395,-0.181 -0.596,-0.264 -0.2,-0.083 -0.402,-0.161 -0.606,-0.234 -0.205,-0.073 -0.411,-0.141 -0.619,-0.204 -0.208,-0.064 -0.417,-0.121 -0.627,-0.174 -0.211,-0.053 -0.422,-0.1 -0.635,-0.142 -0.213,-0.043 -0.427,-0.08 -0.642,-0.112 -0.215,-0.032 -0.43,-0.058 -0.646,-0.08 -0.216,-0.021 -0.433,-0.037 -0.65,-0.048 -0.216,-0.01 -0.433,-0.015 -0.65,-0.015 H 0 c -0.217,0 -0.434,0.005 -0.651,0.015 -0.217,0.011 -0.433,0.027 -0.649,0.048 -0.216,0.022 -0.432,0.048 -0.646,0.08 -0.215,0.032 -0.429,0.069 -0.642,0.112 -0.213,0.042 -0.424,0.089 -0.635,0.142 -0.211,0.053 -0.42,0.11 -0.628,0.174 -0.207,0.063 -0.413,0.131 -0.618,0.204 -0.204,0.073 -0.407,0.151 -0.607,0.234 -0.201,0.083 -0.399,0.171 -0.595,0.264 -0.197,0.093 -0.39,0.191 -0.582,0.293 -0.191,0.102 -0.38,0.209 -0.566,0.321 -0.187,0.111 -0.37,0.227 -0.55,0.348 -0.181,0.121 -0.358,0.246 -0.533,0.375 -0.174,0.129 -0.345,0.263 -0.513,0.4 -0.168,0.138 -0.332,0.28 -0.493,0.426 -0.161,0.146 -0.318,0.295 -0.471,0.449 -0.154,0.153 -0.304,0.311 -0.449,0.472 -0.146,0.16 -0.288,0.324 -0.426,0.492 -0.137,0.168 -0.271,0.339 -0.4,0.513 -0.13,0.175 -0.254,0.352 -0.375,0.533 -0.121,0.18 -0.237,0.364 -0.348,0.549 -0.112,0.187 -0.219,0.376 -0.321,0.567 -0.103,0.192 -0.2,0.386 -0.293,0.582 -0.093,0.196 -0.181,0.395 -0.264,0.595 -0.083,0.201 -0.161,0.403 -0.234,0.608 -0.073,0.204 -0.141,0.41 -0.204,0.618 -0.063,0.207 -0.121,0.416 -0.174,0.627 -0.053,0.211 -0.1,0.422 -0.143,0.635 -0.042,0.213 -0.079,0.427 -0.111,0.642 -0.032,0.214 -0.058,0.43 -0.08,0.646 -0.021,0.216 -0.037,0.432 -0.048,0.649 -0.01,0.217 -0.016,0.434 -0.016,0.651 v 147.731 c 0,0.218 0.006,0.435 0.016,0.651 0.011,0.217 0.027,0.434 0.048,0.65 0.022,0.216 0.048,0.431 0.08,0.646 0.032,0.214 0.069,0.428 0.111,0.641 0.043,0.213 0.09,0.425 0.143,0.635 0.053,0.211 0.111,0.42 0.174,0.628 0.063,0.208 0.131,0.414 0.204,0.618 0.073,0.205 0.151,0.407 0.234,0.608 0.083,0.2 0.171,0.399 0.264,0.595 0.093,0.196 0.19,0.39 0.293,0.581 0.102,0.192 0.209,0.381 0.321,0.567 0.111,0.186 0.227,0.369 0.348,0.55 0.121,0.18 0.245,0.358 0.375,0.532 0.129,0.175 0.263,0.346 0.4,0.513 0.138,0.168 0.28,0.333 0.426,0.493 0.145,0.161 0.295,0.318 0.449,0.472 0.153,0.153 0.31,0.303 0.471,0.449 0.161,0.146 0.325,0.287 0.493,0.425 0.168,0.138 0.339,0.271 0.513,0.401 0.175,0.129 0.352,0.254 0.533,0.375 0.18,0.12 0.363,0.236 0.55,0.348 0.186,0.111 0.375,0.218 0.566,0.321 0.192,0.102 0.385,0.2 0.582,0.292 0.196,0.093 0.394,0.181 0.595,0.264 0.2,0.083 0.403,0.161 0.607,0.235 0.205,0.073 0.411,0.141 0.618,0.204 0.208,0.063 0.417,0.121 0.628,0.174 0.211,0.052 0.422,0.1 0.635,0.142 0.213,0.042 0.427,0.08 0.642,0.111 0.214,0.032 0.43,0.059 0.646,0.08 0.216,0.021 0.432,0.037 0.649,0.048 C -0.434,-0.005 -0.217,0 0,0"
         style="fill:#fa6243;fill-opacity:1;fill-rule:nonzero;stroke:none"
         transform="matrix(1.3333333,0,0,-1.3333333,772.784,707.412)"
         clip-path="url(#clipPath45)" /><path
         id="path46"
         d="m 31.101355,-44.614219 c 2.425781,-8.789062 4.722656,-19.066406 6.890625,-28.394531 h 0.539062 c 2.296875,9.199219 4.734375,19.605469 7.171875,28.394531 l 2.027344,8.109375 H 28.933386 Z M -0.80880156,-9.375e-4 H 19.464636 l 5.414062,-20.9531245 h 26.90625 l 5.402344,20.9531245 h 21.09375 L 50.695105,-88.149375 H 26.765417 Z m 115.72851156,0 h 32.71875 c 19.06641,0 34.20704,-8.25 34.20704,-26.9062495 0,-11.214844 -5.94141,-17.4375 -15.82032,-19.734375 v -0.539063 c 7.30078,-2.707031 11.4961,-10.277344 11.4961,-19.066406 0,-16.898438 -14.19141,-21.902344 -32.44922,-21.902344 h -30.15235 z m 19.875,-52.8632815 v -19.875 h 9.46875 c 9.32813,0 13.79297,2.566407 13.79297,9.46875 0,6.351563 -4.19531,10.40625 -13.93359,10.40625 z m 0,37.453125 v -22.710937 h 11.22657 c 10.94531,0 16.35937,3.105469 16.35937,10.816406 0,8.109375 -5.54297,11.894531 -16.35937,11.894531 z M 261.08182,1.61625 c 10.94532,0 20.14453,-4.1835937 27.71485,-12.703125 L 278.78885,-22.8525 c -4.05468,4.195313 -9.59765,7.300781 -16.35937,7.300781 -13.38281,0 -22.44141,-10.546875 -22.44141,-28.664062 0,-17.4375 9.72657,-28.382813 21.63282,-28.382813 6.35156,0 11.08593,2.296875 15.53906,6.351563 l 10.54687,-12.035156 c -5.9414,-6.351563 -15.14062,-11.496094 -26.49609,-11.496094 -22.3125,0 -41.63672,17.039062 -41.63672,46.242187 0,29.613282 18.92578,45.152344 41.50781,45.152344 z M 329.4871,-9.375e-4 h 25.95703 c 25.82812,0 43.13672,-14.1914065 43.13672,-44.4843745 0,-30.28125 -17.3086,-43.664063 -44.21485,-43.664063 h -24.8789 z m 19.875,-16.0898435 v -55.96875 h 3.78515 c 15.01172,0 25.01953,6.492187 25.01953,27.574219 0,21.09375 -10.00781,28.394531 -25.01953,28.394531 z m 93.0205,16.0898435 h 56.51954 V -16.770469 H 462.2576 v -20.273437 h 30.02344 V -53.672812 H 462.2576 v -17.71875 h 35.28516 V -88.149375 H 442.3826 Z m 0,0"
         style="fill:#ffffff;fill-opacity:0.509811;fill-rule:nonzero;stroke:none"
         aria-label="A B C D E"
         transform="matrix(1.3333333,0,0,1.3333333,199.47293,881.47)" /><path
         id="path47"
         d="m 0,0 h 69.538 c 0.471,0 0.941,-0.012 1.41,-0.035 0.47,-0.023 0.939,-0.057 1.407,-0.103 0.468,-0.046 0.935,-0.104 1.4,-0.173 0.465,-0.069 0.929,-0.149 1.39,-0.241 0.461,-0.092 0.92,-0.195 1.376,-0.309 0.456,-0.115 0.91,-0.24 1.36,-0.377 0.45,-0.136 0.897,-0.284 1.34,-0.442 0.442,-0.159 0.881,-0.328 1.315,-0.508 0.435,-0.18 0.865,-0.37 1.29,-0.571 0.425,-0.201 0.845,-0.413 1.26,-0.635 0.415,-0.221 0.824,-0.453 1.227,-0.695 0.404,-0.242 0.801,-0.493 1.192,-0.755 0.391,-0.261 0.776,-0.532 1.153,-0.812 0.378,-0.28 0.749,-0.569 1.113,-0.868 0.363,-0.298 0.719,-0.605 1.068,-0.921 0.348,-0.316 0.689,-0.64 1.021,-0.973 0.333,-0.332 0.657,-0.673 0.973,-1.021 0.316,-0.349 0.623,-0.705 0.922,-1.068 0.298,-0.364 0.587,-0.735 0.867,-1.113 0.28,-0.377 0.551,-0.762 0.813,-1.153 0.261,-0.391 0.512,-0.788 0.754,-1.192 0.242,-0.403 0.474,-0.812 0.695,-1.227 0.222,-0.415 0.433,-0.835 0.635,-1.26 0.201,-0.425 0.391,-0.855 0.571,-1.289 0.18,-0.435 0.35,-0.874 0.508,-1.317 0.159,-0.442 0.306,-0.889 0.443,-1.339 0.136,-0.45 0.261,-0.903 0.375,-1.359 0.115,-0.457 0.218,-0.916 0.309,-1.377 0.092,-0.461 0.173,-0.924 0.242,-1.39 0.069,-0.465 0.126,-0.932 0.172,-1.4 0.046,-0.468 0.081,-0.937 0.105,-1.407 0.023,-0.469 0.034,-0.939 0.034,-1.41 v -161.851 c 0,-0.471 -0.011,-0.941 -0.034,-1.41 -0.024,-0.471 -0.059,-0.94 -0.105,-1.407 -0.046,-0.468 -0.103,-0.935 -0.172,-1.401 -0.069,-0.465 -0.15,-0.928 -0.242,-1.389 -0.091,-0.462 -0.194,-0.92 -0.309,-1.377 -0.114,-0.456 -0.239,-0.909 -0.375,-1.359 -0.137,-0.45 -0.284,-0.897 -0.443,-1.339 -0.158,-0.443 -0.328,-0.882 -0.508,-1.316 -0.18,-0.435 -0.37,-0.865 -0.571,-1.291 -0.202,-0.425 -0.413,-0.844 -0.635,-1.26 -0.221,-0.414 -0.453,-0.823 -0.695,-1.226 -0.242,-0.404 -0.493,-0.801 -0.754,-1.192 -0.262,-0.391 -0.533,-0.776 -0.813,-1.154 -0.28,-0.377 -0.569,-0.748 -0.867,-1.112 -0.299,-0.363 -0.606,-0.719 -0.922,-1.068 -0.316,-0.348 -0.64,-0.689 -0.973,-1.021 -0.332,-0.333 -0.673,-0.657 -1.021,-0.973 -0.349,-0.316 -0.705,-0.623 -1.068,-0.921 -0.364,-0.299 -0.735,-0.588 -1.113,-0.868 -0.377,-0.28 -0.762,-0.551 -1.153,-0.812 -0.391,-0.262 -0.788,-0.513 -1.192,-0.756 -0.403,-0.241 -0.812,-0.473 -1.227,-0.695 -0.415,-0.221 -0.835,-0.432 -1.26,-0.634 -0.425,-0.201 -0.855,-0.392 -1.29,-0.572 -0.434,-0.18 -0.873,-0.349 -1.315,-0.507 -0.443,-0.158 -0.89,-0.306 -1.34,-0.443 -0.45,-0.136 -0.904,-0.262 -1.36,-0.376 -0.456,-0.114 -0.915,-0.217 -1.376,-0.309 -0.461,-0.092 -0.925,-0.172 -1.39,-0.241 -0.465,-0.069 -0.932,-0.127 -1.4,-0.173 -0.468,-0.046 -0.937,-0.08 -1.407,-0.103 -0.469,-0.024 -0.939,-0.035 -1.41,-0.035 H 0 c -0.47,0 -0.94,0.011 -1.41,0.035 -0.47,0.023 -0.939,0.057 -1.407,0.103 -0.468,0.046 -0.935,0.104 -1.4,0.173 -0.465,0.069 -0.928,0.149 -1.39,0.241 -0.461,0.092 -0.92,0.195 -1.376,0.309 -0.456,0.114 -0.91,0.24 -1.36,0.377 -0.45,0.136 -0.896,0.284 -1.339,0.442 -0.443,0.158 -0.882,0.327 -1.316,0.507 -0.435,0.18 -0.865,0.371 -1.29,0.572 -0.425,0.202 -0.845,0.413 -1.26,0.634 -0.415,0.222 -0.824,0.454 -1.227,0.695 -0.404,0.243 -0.801,0.494 -1.192,0.756 -0.391,0.261 -0.775,0.532 -1.153,0.812 -0.378,0.28 -0.749,0.569 -1.112,0.868 -0.364,0.298 -0.72,0.605 -1.068,0.921 -0.349,0.316 -0.689,0.64 -1.022,0.973 -0.333,0.332 -0.657,0.673 -0.973,1.021 -0.316,0.349 -0.623,0.705 -0.921,1.068 -0.298,0.364 -0.588,0.735 -0.868,1.112 -0.28,0.378 -0.551,0.763 -0.812,1.154 -0.262,0.391 -0.513,0.788 -0.755,1.192 -0.242,0.403 -0.473,0.812 -0.695,1.226 -0.222,0.416 -0.433,0.835 -0.634,1.26 -0.201,0.426 -0.392,0.856 -0.572,1.291 -0.18,0.434 -0.349,0.873 -0.508,1.316 -0.158,0.442 -0.306,0.889 -0.442,1.339 -0.137,0.45 -0.262,0.903 -0.376,1.359 -0.115,0.457 -0.218,0.915 -0.309,1.377 -0.092,0.461 -0.173,0.924 -0.242,1.389 -0.069,0.466 -0.126,0.933 -0.172,1.401 -0.046,0.467 -0.081,0.936 -0.104,1.407 -0.023,0.469 -0.035,0.939 -0.035,1.41 V -28.74 c 0,0.471 0.012,0.941 0.035,1.41 0.023,0.47 0.058,0.939 0.104,1.407 0.046,0.468 0.103,0.935 0.172,1.4 0.069,0.466 0.15,0.929 0.242,1.39 0.091,0.461 0.194,0.92 0.309,1.377 0.114,0.456 0.239,0.909 0.376,1.359 0.136,0.45 0.284,0.897 0.442,1.339 0.159,0.443 0.328,0.882 0.508,1.317 0.18,0.434 0.371,0.864 0.572,1.289 0.201,0.425 0.412,0.845 0.634,1.26 0.222,0.415 0.453,0.824 0.695,1.227 0.242,0.404 0.493,0.801 0.755,1.192 0.261,0.391 0.532,0.776 0.812,1.153 0.28,0.378 0.57,0.749 0.868,1.113 0.298,0.363 0.605,0.719 0.921,1.068 0.316,0.348 0.64,0.689 0.973,1.021 0.333,0.333 0.673,0.657 1.022,0.973 0.348,0.316 0.704,0.623 1.068,0.921 0.363,0.299 0.734,0.588 1.112,0.868 0.378,0.28 0.762,0.551 1.153,0.812 0.391,0.262 0.788,0.513 1.192,0.755 0.403,0.242 0.812,0.474 1.227,0.695 0.415,0.222 0.835,0.434 1.26,0.635 0.425,0.201 0.855,0.391 1.29,0.571 0.434,0.18 0.873,0.349 1.316,0.508 0.443,0.158 0.889,0.306 1.339,0.442 0.45,0.137 0.904,0.262 1.36,0.377 0.456,0.114 0.915,0.217 1.376,0.309 0.462,0.092 0.925,0.172 1.39,0.241 0.465,0.069 0.932,0.127 1.4,0.173 0.468,0.046 0.937,0.08 1.407,0.103 C -0.94,-0.012 -0.47,0 0,0"
         style="fill:#83cc58;fill-opacity:1;fill-rule:nonzero;stroke:#ffffff;stroke-width:3.537;stroke-linecap:butt;stroke-linejoin:miter;stroke-miterlimit:10;stroke-dasharray:none;stroke-opacity:1"
         transform="matrix(1.3333333,0,0,-1.3333333,351.27333,677.3648)"
         clip-path="url(#clipPath48)" /><path
         id="path49"
         d="m 12.902314,-4.6875e-6 h 40.570313 c 23.636718,0 42.410156,-10.2304683125 42.410156,-33.3632813125 0,-13.910156 -7.371094,-21.621094 -19.605469,-24.46875 v -0.667969 c 9.046875,-3.363281 14.25,-12.75 14.25,-23.636718 0,-20.964847 -17.601562,-27.164067 -40.242187,-27.164067 H 12.902314 Z M 37.546845,-65.542973 v -24.644532 h 11.742188 c 11.566406,0 17.097656,3.1875 17.097656,11.730469 0,7.886719 -5.203125,12.914063 -17.273437,12.914063 z m 0,46.429687 V -47.273442 H 51.46872 c 13.570313,0 20.285157,3.855469 20.285157,13.40625 0,10.066406 -6.878907,14.753906 -20.285157,14.753906 z m 0,0"
         style="fill:#ffffff;fill-opacity:1;fill-rule:nonzero;stroke:none"
         aria-label="B"
         transform="matrix(1.3333333,0,0,1.3333333,328.74613,892.9336)" /></g></g></svg>
